<?xml version="1.0" standalone="no"?><!DOCTYPE svg PUBLIC "-//W3C//DTD SVG 1.1//EN" "http://www.w3.org/Graphics/SVG/1.1/DTD/svg11.dtd"><svg t="1702518145393" class="icon" viewBox="0 0 1024 1024" version="1.1" xmlns="http://www.w3.org/2000/svg" p-id="2320" width="64" height="64" xmlns:xlink="http://www.w3.org/1999/xlink"><path d="M799.219 812.558q-144.552 0-578.207 0-50.876 0-87.216-36.34-37.147-35.532-37.147-86.408 0-25.034 0-62.182 0-37.955 0-87.216 0-12.921 0-32.302 0-19.381 0-44.415 0-50.876 0-127.593 0-50.876 36.34-87.216 36.34-35.532 88.023-35.532 193.005 0 578.207 0 50.876 0 87.216 35.532 37.147 36.34 37.147 87.216 0 118.71 0 355.323 0 50.876-36.34 85.601-36.34 35.532-88.023 35.532zM888.050 336.102q0-36.34-25.842-61.374-26.649-25.842-62.989-25.842-193.005 0-578.207 0-36.34 0-62.989 25.842-25.842 25.034-25.842 61.374 0 12.113 0 36.34 0 20.189 0 50.068 0 22.611 0 50.876 0 20.996 0 45.223 0 72.68 0 172.816 0 36.34 25.842 61.374 26.649 25.842 62.989 25.842 193.005 0 578.207 0 36.34 0 62.989-25.842 25.842-25.034 25.842-61.374 0-118.71 0-355.323zM822.638 647.817q5.653-5.653 5.653-12.921t-5.653-12.113q-50.068-50.876-151.012-151.82 37.147-35.532 148.59-142.129 4.845-4.845 4.845-12.113 0-7.268-4.845-12.113-4.845-5.653-12.113-5.653-7.268 0-12.921 5.653-95.291 91.253-285.066 272.953-71.872-67.834-288.296-272.953-4.845-5.653-12.113-5.653-7.268 0-12.921 5.653-4.845 4.845-4.845 12.113 0 7.268 5.653 12.113 50.068 47.646 150.205 143.744-37.955 37.147-151.82 150.205-5.653 4.845-5.653 12.113 0 7.268 5.653 12.921 8.076 4.845 12.113 4.845 8.883 0 12.921-4.845 50.068-50.876 151.012-151.82 30.687 29.879 124.363 118.71 5.653 4.845 12.921 4.845 6.46 0 12.113-4.845 41.185-39.57 123.555-118.71 37.955 37.955 151.82 151.82 5.653 4.845 12.113 4.845 10.498 0 13.728-4.845z" p-id="2321" fill="#4c4c4c"></path></svg>